HIERARCHY
ROOT Hips
{
	OFFSET -0.001795 -0.223333 0.028219
	CHANNELS 6 Xposition Yposition Zposition Zrotation Yrotation Xrotation 
	JOINT LeftUpLeg
	{
		OFFSET 0.069520 -0.091406 -0.006815
		CHANNELS 3 Zrotation Yrotation Xrotation
		JOINT LeftLeg
		{
			OFFSET 0.034277 -0.375199 -0.004496
			CHANNELS 3 Zrotation Yrotation Xrotation
			JOINT LeftFoot
			{
				OFFSET -0.013596 -0.397961 -0.043693
				CHANNELS 3 Zrotation Yrotation Xrotation
				JOINT LeftToe
				{
					OFFSET 0.026358 -0.055791 0.119288
					CHANNELS 3 Zrotation Yrotation Xrotation
					End Site
					{
						OFFSET 0.000000 0.000000 0.000000
					}
				}
			}
		}
	}
	JOINT RightUpLeg
	{
		OFFSET -0.067670 -0.090522 -0.004320
		CHANNELS 3 Zrotation Yrotation Xrotation
		JOINT RightLeg
		{
			OFFSET -0.038290 -0.382569 -0.008850
			CHANNELS 3 Zrotation Yrotation Xrotation
			JOINT RightFoot
			{
				OFFSET 0.015774 -0.398415 -0.042312
				CHANNELS 3 Zrotation Yrotation Xrotation
				JOINT RightToe
				{
					OFFSET -0.025372 -0.048144 0.123348
					CHANNELS 3 Zrotation Yrotation Xrotation
					End Site
					{
						OFFSET 0.000000 0.000000 0.000000
					}
				}
			}
		}
	}
	JOINT Spine
	{
		OFFSET -0.002533 0.108963 -0.026696
		CHANNELS 3 Zrotation Yrotation Xrotation
		JOINT Spine1
		{
			OFFSET 0.005487 0.135180 0.001092
			CHANNELS 3 Zrotation Yrotation Xrotation
			JOINT Spine2
			{
				OFFSET 0.001457 0.052922 0.025425
				CHANNELS 3 Zrotation Yrotation Xrotation
				JOINT Neck
				{
					OFFSET -0.002778 0.213870 -0.042857
					CHANNELS 3 Zrotation Yrotation Xrotation
					JOINT Head
					{
						OFFSET 0.005152 0.064970 0.051349
						CHANNELS 3 Zrotation Yrotation Xrotation
						End Site
						{
							OFFSET 0.000000 0.000000 0.000000
						}
					}
				}
				JOINT LeftShoulder
				{
					OFFSET 0.078845 0.121749 -0.034090
					CHANNELS 3 Zrotation Yrotation Xrotation
					JOINT LeftArm
					{
						OFFSET 0.090977 0.030469 -0.008868
						CHANNELS 3 Zrotation Yrotation Xrotation
						JOINT LeftForeArm
						{
							OFFSET 0.259612 -0.012772 -0.027456
							CHANNELS 3 Zrotation Yrotation Xrotation
							JOINT LeftHand
							{
								OFFSET 0.249234 0.008986 -0.001171
								CHANNELS 3 Zrotation Yrotation Xrotation
								End Site
								{
									OFFSET 0.000000 0.000000 0.000000
								}
							}
						}
					}
				}
				JOINT RightShoulder
				{
					OFFSET -0.081759 0.118833 -0.038615
					CHANNELS 3 Zrotation Yrotation Xrotation
					JOINT RightArm
					{
						OFFSET -0.096012 0.032551 -0.009143
						CHANNELS 3 Zrotation Yrotation Xrotation
						JOINT RightForeArm
						{
							OFFSET -0.253742 -0.013329 -0.021401
							CHANNELS 3 Zrotation Yrotation Xrotation
							JOINT RightHand
							{
								OFFSET -0.255298 0.007772 -0.005559
								CHANNELS 3 Zrotation Yrotation Xrotation
								End Site
								{
									OFFSET 0.000000 0.000000 0.000000
								}
							}
						}
					}
				}
			}
		}
	}
}
MOTION
Frames: 7
Frame Time: 0.050000
0.000000 0.468015 0.000000 -2.451308 19.852238 -14.623452 54.148262 8.592742 -46.236683 -44.547712 43.451303 90.253237 10.266520 32.720628 -37.696085 0.000000 0.000000 0.000000 -26.321611 -21.019819 -66.384024 39.927793 -44.258762 88.919852 -13.515773 -38.619757 -14.168627 0.000000 0.000000 0.000000 2.799649 -7.674410 48.887227 3.189127 0.483272 -29.208797 1.058378 -4.971500 25.492838 -0.607600 2.104097 -21.269803 0.000000 0.000000 0.000000 -26.936828 -13.771850 5.641863 -32.765546 -15.005724 -1.726514 7.216593 -49.956923 -1.396471 0.000000 0.000000 0.000000 19.195856 3.864259 2.140552 39.702379 -3.018896 -7.521141 -13.134494 43.583630 -2.367579 0.000000 0.000000 0.000000 
0.000242 0.513209 0.009570 -1.144913 19.415997 -10.643224 54.085741 6.782157 -39.554421 -58.519644 41.492759 68.529268 10.897360 35.227951 -36.150728 0.000000 0.000000 0.000000 -26.304361 -19.244672 -63.141402 37.477562 -40.542825 85.283485 -13.491632 -37.024304 -14.349466 0.000000 0.000000 0.000000 2.732721 -7.287193 47.717730 -1.278369 1.317524 -33.543839 3.556246 -7.280158 25.589955 -1.944050 2.576855 -22.476885 0.000000 0.000000 0.000000 -28.483837 -14.094151 6.983205 -36.501199 -11.332236 -3.282516 6.277969 -46.888232 -0.443122 0.000000 0.000000 0.000000 23.151531 3.158711 1.056900 39.727957 -5.977127 -8.171747 -16.829599 45.812425 -4.399948 0.000000 0.000000 0.000000 
0.002714 0.562996 0.018013 0.246050 19.979527 -6.744866 47.734655 5.191133 -39.715203 -56.944936 35.741232 63.561030 12.438139 40.057857 -32.497376 0.000000 0.000000 0.000000 -28.971441 -18.107899 -54.912538 36.588912 -38.846765 80.752462 -12.063264 -33.658473 -21.554939 0.000000 0.000000 0.000000 3.262614 -5.962847 40.610013 1.784414 0.783326 -28.574995 -2.534611 -6.219114 22.817818 2.108552 0.013695 -19.089094 0.000000 0.000000 0.000000 -29.355506 -10.170822 3.385061 -38.164850 -7.920338 -3.685729 6.709247 -46.934963 -0.861600 0.000000 0.000000 0.000000 26.960193 3.845461 1.961632 40.052370 -5.952800 -7.873778 -14.203545 45.179508 -3.202533 0.000000 0.000000 0.000000 
0.006223 0.612202 0.025183 0.484272 18.739042 -4.705685 44.490070 3.779573 -34.217169 -55.685511 29.444023 55.720937 14.070164 42.342966 -28.775570 0.000000 0.000000 0.000000 -27.486159 -14.083947 -48.646766 34.623639 -34.856552 74.004769 -11.561416 -32.484191 -25.384463 0.000000 0.000000 0.000000 2.514463 -4.587138 35.943609 2.364437 0.521179 -27.684059 -2.787186 -5.410210 22.882483 2.839383 0.097679 -22.494220 0.000000 0.000000 0.000000 -26.896083 -6.735024 0.902091 -43.626247 -6.371701 -4.485814 0.295169 -44.161660 1.768832 0.000000 0.000000 0.000000 22.207000 2.255346 1.257885 45.577403 -4.317644 -8.229146 -11.746847 43.411918 -1.788077 0.000000 0.000000 0.000000 
0.009795 0.690133 0.032051 0.955041 18.338551 -1.103428 37.155963 2.089595 -30.743156 -49.774728 20.989888 47.753202 16.477793 44.345277 -23.078358 0.000000 0.000000 0.000000 -25.560714 -10.355049 -41.496596 33.181177 -29.025554 61.521355 -11.148736 -30.736087 -24.297690 0.000000 0.000000 0.000000 2.607558 -3.420362 29.434469 1.341468 0.679793 -28.930717 -2.811464 -6.089270 26.268305 4.506032 -0.630542 -25.810832 0.000000 0.000000 0.000000 -26.035350 -5.246843 0.232454 -47.400247 -6.378104 -5.193770 0.492589 -39.071838 1.667165 0.000000 0.000000 0.000000 20.302969 1.394203 0.900249 50.763157 -3.325964 -8.897163 -13.212003 42.672885 -1.960170 0.000000 0.000000 0.000000 
0.011953 0.743527 0.038523 0.646181 17.469287 0.346579 33.903297 1.427772 -27.784280 -44.201232 15.868169 41.996764 19.576249 44.413509 -12.937484 0.000000 0.000000 0.000000 -22.610839 -7.538782 -37.679238 31.607247 -23.989237 52.224740 -10.937068 -30.094062 -20.928899 0.000000 0.000000 0.000000 2.874236 -2.664106 24.625550 1.418809 0.641893 -26.185698 -3.386898 -5.007936 24.626144 5.259729 -0.904533 -24.896039 0.000000 0.000000 0.000000 -23.211560 -4.335755 -0.525506 -52.116651 -5.077065 -5.900505 1.204086 -36.404891 1.189211 0.000000 0.000000 0.000000 18.298652 0.021981 0.267633 55.559392 -2.556118 -8.882618 -13.309477 41.991451 -1.740375 0.000000 0.000000 0.000000 
0.012853 0.792523 0.044729 -0.002051 16.642979 0.915441 30.522085 0.712778 -23.497006 -37.576834 11.366699 36.648105 19.432995 40.622462 -7.995264 0.000000 0.000000 0.000000 -19.755524 -4.937668 -32.185420 29.399200 -18.843783 42.892163 -11.242453 -30.373811 -15.140154 0.000000 0.000000 0.000000 2.379404 -1.960236 20.625389 2.202734 0.444694 -27.253999 -3.990125 -5.130247 26.882814 5.110932 -0.782625 -25.691253 0.000000 0.000000 0.000000 -22.088401 -2.682410 -1.198174 -53.886125 -4.875631 -6.461944 2.555985 -34.372504 0.814725 0.000000 0.000000 0.000000 16.936800 0.494890 0.542432 58.324563 -0.403770 -8.376217 -12.447586 40.196179 -1.261491 0.000000 0.000000 0.000000 
